<?xml version="1.0" standalone="no"?>
<!DOCTYPE svg PUBLIC "-//W3C//DTD SVG 20010904//EN"
 "http://www.w3.org/TR/2001/REC-SVG-20010904/DTD/svg10.dtd">
<svg version="1.0" xmlns="http://www.w3.org/2000/svg"
 width="420.000000pt" height="420.000000pt" viewBox="0 0 420.000000 420.000000"
 preserveAspectRatio="xMidYMid meet">
<metadata>
Created by potrace 1.11, written by Peter Selinger 2001-2013
</metadata>
<g transform="translate(0.000000,420.000000) scale(0.100000,-0.100000)"
fill="#000000" stroke="none">
<path d="M63 2720 c-65 -39 -63 -23 -63 -617 0 -492 2 -541 18 -573 35 -71 24
-70 620 -70 588 0 584 0 622 62 19 32 20 49 20 573 0 604 1 592 -70 627 -32
16 -81 18 -575 18 -518 0 -541 -1 -572 -20z"/>
<path d="M1827 2540 c-15 -6 -16 -45 -2 -59 6 -5 24 -11 40 -13 l30 -3 3 -297
c2 -260 0 -298 -13 -299 -8 -1 -19 -3 -25 -4 -5 -1 -14 -3 -20 -4 -15 -2 -31
-38 -24 -56 5 -13 25 -15 138 -13 l131 3 0 30 c0 27 -4 30 -42 38 l-42 8 0
250 0 251 22 -34 c12 -18 51 -80 86 -138 35 -58 75 -122 90 -144 14 -21 30
-47 36 -57 5 -10 37 -62 69 -114 l59 -96 51 3 51 3 0 332 c0 182 2 334 5 336
3 3 21 7 40 9 30 4 35 8 38 33 2 15 -1 31 -6 34 -8 5 -181 6 -247 2 -10 -1
-15 -12 -15 -34 0 -30 3 -33 32 -35 18 -2 37 -7 42 -12 9 -9 15 -490 6 -490
-3 0 -83 127 -179 283 -96 155 -175 284 -177 286 -5 6 -163 7 -177 1z"/>
<path d="M3225 2540 c-24 -4 -30 -11 -32 -33 -2 -27 7 -33 63 -41 18 -3 19
-14 20 -299 l1 -296 -41 -8 c-37 -8 -41 -11 -42 -41 l-1 -32 132 0 c118 0 133
2 137 18 8 35 -3 50 -43 56 -21 3 -39 10 -39 14 -1 14 -1 417 0 456 0 37 9 25
141 -190 78 -126 159 -257 181 -291 l40 -63 49 0 c47 0 49 1 50 28 0 15 1 166
2 336 l2 309 30 4 c46 7 58 25 46 73 0 3 -58 5 -129 5 -118 0 -127 -1 -133
-20 -10 -38 1 -55 37 -55 19 0 37 -6 40 -13 2 -7 3 -120 2 -252 l-3 -240 -172
280 c-95 154 -174 283 -176 288 -3 10 -117 15 -162 7z"/>
<path d="M2765 2345 c-74 -22 -105 -43 -106 -73 0 -15 -2 -39 -3 -54 -2 -30 4
-34 48 -33 25 0 31 5 38 33 10 39 57 64 116 61 79 -5 113 -39 117 -119 l3 -47
-105 -6 c-122 -6 -185 -31 -217 -86 -21 -37 -28 -102 -14 -143 36 -103 198
-129 297 -48 20 17 37 27 38 23 14 -68 8 -63 78 -63 l65 0 0 35 c0 28 -4 35
-20 35 -11 0 -20 3 -21 8 0 4 -1 88 -2 187 -2 168 -4 182 -25 217 -46 74 -175
107 -287 73z m211 -353 c1 -52 -20 -82 -73 -107 -44 -21 -116 -23 -139 -4 -29
24 -36 58 -18 94 23 49 64 65 154 62 l75 -2 1 -43z"/>
</g>
</svg>
